<svg xmlns="http://www.w3.org/2000/svg" xml:space="preserve" width="512" height="512" viewBox="0 0 512 512"><path d="M497.164 122.522c20.968-29.319 18.33-70.474-7.945-96.796l-.001-.001-3.711-3.718C471.34 7.816 452.502 0 432.464 0s-38.876 7.816-53.043 22.008L67.412 334.565a15 15 0 0 0-2.824 3.956c-.009.016-.022.024-.03.04l-41.63 84.945c-6.934 14.148-6.528 30.437.396 43.946l-18.917 18.95c-5.853 5.863-5.845 15.36.018 21.213A14.95 14.95 0 0 0 15.023 512c3.843 0 7.686-1.468 10.616-4.403l18.897-18.93a48.9 48.9 0 0 0 22.322 5.402c7.315 0 14.69-1.642 21.559-5.02l84.796-41.704c.042-.021.066-.045.103-.067a15 15 0 0 0 3.893-2.796l164.866-165.156c2.074 16.409 9.367 32.275 21.919 44.849a15 15 0 0 0 21.232 0l105.354-105.54c26.14-26.185 28.322-67.398 6.584-96.113m-96.511-79.32C409.151 34.688 420.449 30 432.464 30s23.313 4.688 31.812 13.203l3.711 3.718c17.561 17.592 17.561 46.217 0 63.809l-82.436 82.582-67.372-67.49zm-103.67 103.852 67.372 67.49-.36.361-.003.003-197.398 197.744-67.372-67.49zM75.178 462.127a18.88 18.88 0 0 1-21.701-3.612 19.02 19.02 0 0 1-3.61-21.807l32.386-66.082 58.933 59.037zm394.171-264.688-93.009 93.173c-8.772-17.694-5.811-39.791 8.887-54.514l90.941-91.102c9.621 16.589 7.347 38.252-6.819 52.443"/></svg>